<?xml version="1.0" encoding="utf-8"?>
<!-- Generator: Adobe Illustrator 21.0.2, SVG Export Plug-In . SVG Version: 6.00 Build 0)  -->
<svg version="1.1" id="Layer_1" xmlns="http://www.w3.org/2000/svg" xmlns:xlink="http://www.w3.org/1999/xlink" x="0px" y="0px"
	 viewBox="0 0 120 53.5" style="enable-background:new 0 0 120 53.5;" xml:space="preserve">
<style type="text/css">
	.st0{fill:#010F27;}
</style>
<g>
	<path class="st0" d="M60,53.5l-1.7-1.6c-2.1-2-4.8-3.2-7.7-3.2H12.5C5.6,48.7,0,43.1,0,36.2V0h120v36.2c0,6.9-5.7,12.5-12.6,12.5
		h-38c-2.9,0-5.7,1.1-7.7,3.2L60,53.5z M3.3,3.3v32.9c0,5.1,4.2,9.2,9.3,9.2h38.1c3.5,0,6.8,1.2,9.4,3.5c2.6-2.3,5.9-3.5,9.4-3.5h38
		c5.2,0,9.4-4.1,9.4-9.2V3.3H3.3z"/>
	<path class="st0" d="M104.5,19.6h-3.3v11.9h3.3V19.6z M102.9,17.9c1.4,0,2-0.6,2-1.7c0-1.2-0.7-1.8-2-1.8c-1.4,0-2,0.6-2,1.8
		C100.9,17.3,101.6,17.9,102.9,17.9 M95.9,31.5h3.7l-4.8-7.3l4.5-4.7h-3.7L90.4,25V14.3h-3.3v17.2h3.3v-3l2.2-2.3L95.9,31.5z
		 M79.7,19.3c-0.9,0-1.7,0.2-2.4,0.6c-0.7,0.4-1.2,1-1.6,1.8l-0.1-2.1h-2.9v11.9h3.3v-6.3c0-1.1,0.3-1.9,0.8-2.5
		c0.5-0.5,1.2-0.8,1.9-0.8c1.4,0,2.1,0.9,2.1,2.7v6.9H84v-7.8c0-1.4-0.4-2.5-1.2-3.2C82.1,19.7,81,19.3,79.7,19.3 M69.4,19.6h-3.3
		v11.9h3.3V19.6z M67.8,17.9c1.4,0,2-0.6,2-1.7c0-1.2-0.7-1.8-2-1.8c-1.4,0-2,0.6-2,1.8C65.7,17.3,66.4,17.9,67.8,17.9 M58.3,31.7
		c1.7,0,3.1-0.3,4-1c0.9-0.7,1.4-1.6,1.4-2.7c0-1-0.4-1.8-1.1-2.4c-0.7-0.6-2-1-3.7-1.4c-1-0.2-1.6-0.4-2-0.6
		c-0.4-0.2-0.6-0.5-0.6-0.8c0-0.3,0.2-0.6,0.6-0.8c0.4-0.2,0.9-0.3,1.6-0.3c0.8,0,1.4,0.2,1.9,0.5c0.5,0.3,1,0.8,1.3,1.4l2-1.7
		c-0.6-0.9-1.2-1.5-2.1-1.9c-0.8-0.4-1.9-0.6-3.2-0.6c-1.1,0-2.1,0.2-2.9,0.5c-0.8,0.4-1.4,0.8-1.8,1.4c-0.4,0.6-0.6,1.2-0.6,1.9
		c0,1,0.4,1.8,1.1,2.4c0.7,0.6,2,1.1,3.9,1.4c0.9,0.2,1.5,0.4,1.8,0.5c0.4,0.2,0.5,0.4,0.5,0.7c0,0.3-0.2,0.6-0.6,0.8
		c-0.4,0.2-0.9,0.3-1.6,0.3c-0.9,0-1.6-0.1-2.2-0.4c-0.6-0.3-1.1-0.8-1.4-1.4l-1.9,2C53.8,31,55.7,31.7,58.3,31.7 M49.1,14.3h-3.3
		v13.8c0,1.2,0.3,2.1,0.8,2.7c0.5,0.6,1.4,0.8,2.5,0.8c0.4,0,0.8,0,1.2-0.1c0.4-0.1,0.7-0.2,1-0.4l0.3-2.3c-0.3,0.1-0.5,0.2-0.7,0.2
		c-0.2,0-0.4,0.1-0.7,0.1c-0.4,0-0.8-0.1-0.9-0.3c-0.2-0.2-0.3-0.6-0.3-1.2V14.3z M37.6,21.7c0.8,0,1.4,0.2,1.9,0.7
		c0.5,0.5,0.8,1.1,0.9,2h-5.6c0.1-0.9,0.4-1.6,0.9-2.1C36.1,22,36.8,21.7,37.6,21.7 M43.3,25.5c0-2-0.5-3.5-1.5-4.6
		c-1-1.1-2.4-1.6-4.3-1.6c-1.9,0-3.4,0.5-4.4,1.6c-1,1.1-1.6,2.6-1.6,4.6c0,2,0.5,3.5,1.6,4.6c1.1,1.1,2.6,1.6,4.6,1.6
		c1.4,0,2.5-0.3,3.4-0.8c0.9-0.5,1.5-1.2,1.9-2.2l-2.7-1c-0.2,0.5-0.5,0.8-0.9,1.1c-0.4,0.3-1,0.4-1.7,0.4c-1.7,0-2.6-0.8-3-2.5h8.4
		C43.3,26.4,43.3,25.9,43.3,25.5 M26,15.8v6.5H19v-6.5h-3.3v15.8H19v-6.6H26v6.6h3.3V15.8H26z"/>
</g>
</svg>
